<?xml version="1.0" encoding="utf-8"?>
<!-- Generator: Adobe Illustrator 16.0.0, SVG Export Plug-In . SVG Version: 6.00 Build 0)  -->
<!DOCTYPE svg PUBLIC "-//W3C//DTD SVG 1.1//EN" "http://www.w3.org/Graphics/SVG/1.1/DTD/svg11.dtd">
<svg version="1.1" id="Layer_1" xmlns="http://www.w3.org/2000/svg" xmlns:xlink="http://www.w3.org/1999/xlink" x="0px" y="0px"
	 width="6px" height="10px" viewBox="0 0 6 10" enable-background="new 0 0 6 10" xml:space="preserve">
<path fill="#7E7E7E" d="M0.618,0.1L0.103,0.6C0.038,0.659,0,0.743,0,0.831c0,0.087,0.034,0.164,0.103,0.23l4.051,3.94l-4.05,3.937
	C0.039,8.996,0.001,9.08,0,9.168c0,0.087,0.034,0.164,0.103,0.23L0.618,9.9c0.126,0.131,0.335,0.135,0.466,0.008
	C1.087,9.906,1.09,9.902,1.093,9.9l4.804-4.67C5.962,5.171,6,5.088,6,5S5.963,4.829,5.896,4.77L1.093,0.1
	C0.966-0.031,0.757-0.035,0.626,0.092C0.624,0.094,0.621,0.097,0.618,0.1z"/>
</svg>
