<svg xmlns="http://www.w3.org/2000/svg" width="12" height="15" viewBox="0 0 12 15">
    <path fill="#373737" fill-rule="nonzero" d="M11.76 1.447a.988.988 0 0 0-.774-.383h-.979V.736C10.007.33 9.7 0 9.32 0H2.68c-.379 0-.687.33-.687.736v.328h-.98c-.298 0-.58.14-.773.382-.192.241-.274.558-.227.868.257 1.694 1.253 3.19 2.666 4.01.129.333.275.647.438.94.52.937 1.167 1.585 1.878 1.898.072.78-.413 1.52-1.144 1.696a.345.345 0 0 0-.253.339v1.592h-.601c-.537 0-.973.468-.973 1.042v.822c0 .192.145.347.324.347h7.335c.18 0 .324-.155.324-.347v-.822c0-.574-.436-1.042-.973-1.042h-.602v-1.592a.343.343 0 0 0-.25-.338c-.74-.178-1.226-.925-1.146-1.712.7-.318 1.335-.96 1.847-1.882.163-.294.31-.608.438-.94 1.413-.821 2.409-2.317 2.666-4.01a1.126 1.126 0 0 0-.227-.868zM.653 2.203a.393.393 0 0 1 .081-.307.357.357 0 0 1 .28-.138h.979v.639c0 1.001.12 1.971.345 2.858A4.993 4.993 0 0 1 .653 2.203zM9.36 13.83v.475H2.672v-.475c0-.192.146-.347.325-.347h6.037c.18 0 .325.155.325.347zm-1.575-2.287v1.245H4.247v-1.245h3.537zm-2.686-.694a2.374 2.374 0 0 0 .554-1.498 2.416 2.416 0 0 0 .727-.005c.008.564.213 1.097.557 1.503H5.098zm4.26-8.453c0 1.71-.366 3.313-1.033 4.513C7.691 8.053 6.865 8.683 6 8.683c-.865 0-1.69-.63-2.325-1.773-.667-1.2-1.034-2.803-1.034-4.513V.736c0-.023.018-.042.04-.042H9.32c.021 0 .039.019.039.042v1.66zm1.989-.194a4.993 4.993 0 0 1-1.685 3.052c.226-.887.345-1.857.345-2.858v-.64h.98c.107 0 .21.051.279.14a.393.393 0 0 1 .08.306z"/>
</svg>
