<svg xmlns="http://www.w3.org/2000/svg" width="35" height="35" viewBox="0 0 35 35">
    <g fill="none" fill-rule="evenodd">
        <path stroke="#F1F1ED" d="M.5.5h34v34H.5z"/>
        <path fill="#FFF" fill-rule="nonzero" d="M24.7 10.736a1.254 1.254 0 0 0-.967-.46h-1.224v-.393A.872.872 0 0 0 21.65 9H13.35a.872.872 0 0 0-.859.883v.393h-1.224c-.373 0-.725.168-.967.46-.24.289-.343.668-.284 1.041.322 2.032 1.566 3.827 3.333 4.812.161.399.344.777.547 1.128.65 1.124 1.459 1.901 2.348 2.277.09.937-.516 1.824-1.43 2.036a.416.416 0 0 0-.316.406v1.911h-.752c-.67 0-1.216.56-1.216 1.25v.986c0 .23.181.417.405.417h9.169a.411.411 0 0 0 .405-.417v-.986c0-.69-.545-1.25-1.216-1.25h-.752v-1.911a.414.414 0 0 0-.312-.405c-.926-.214-1.533-1.11-1.434-2.054.874-.382 1.668-1.152 2.309-2.26.203-.351.386-.73.548-1.128 1.766-.985 3.01-2.78 3.332-4.812a1.312 1.312 0 0 0-.284-1.041zm-13.883.907a.458.458 0 0 1 .1-.367.453.453 0 0 1 .35-.167h1.224v.767c0 1.202.15 2.366.432 3.43a5.933 5.933 0 0 1-2.106-3.663zm10.881 13.954v.57H13.34v-.57c0-.23.182-.417.406-.417h7.547c.223 0 .405.187.405.417zm-1.968-2.744v1.494h-4.421v-1.494h4.42zm-3.358-.834a2.764 2.764 0 0 0 .692-1.798 3.143 3.143 0 0 0 .91-.005c.01.677.266 1.317.696 1.803h-2.298zm5.326-10.143c0 2.052-.458 3.976-1.291 5.416-.794 1.372-1.826 2.128-2.907 2.128-1.08 0-2.113-.756-2.907-2.128-.833-1.44-1.291-3.364-1.291-5.416V9.883a.05.05 0 0 1 .048-.05h8.3a.05.05 0 0 1 .048.05v1.993zm2.485-.233a5.933 5.933 0 0 1-2.106 3.663c.283-1.064.432-2.228.432-3.43v-.767h1.224c.135 0 .262.061.35.167a.458.458 0 0 1 .1.367z"/>
    </g>
</svg>
