<svg xmlns="http://www.w3.org/2000/svg" width="12" height="12" viewBox="0 0 12 12">
    <path fill="#FFF" fill-rule="nonzero" d="M5.943 1.081c1.586 0 1.776.006 2.403.036 1.609.073 2.361.845 2.436 2.459.029.632.034.823.034 2.424 0 1.604-.006 1.793-.035 2.425-.074 1.612-.824 2.386-2.436 2.46-.627.029-.814.034-2.403.034-1.586 0-1.775-.005-2.401-.035-1.615-.073-2.363-.849-2.437-2.46-.027-.632-.033-.82-.033-2.424 0-1.602.006-1.792.034-2.425.074-1.613.825-2.385 2.437-2.459.627-.029.815-.035 2.401-.035zm0-1.081c-1.614 0-1.816.007-2.45.036C1.335.136.135 1.345.036 3.526.006 4.166 0 4.371 0 6c0 1.63.007 1.834.036 2.475.099 2.178 1.296 3.39 3.457 3.489.634.029.836.036 2.45.036 1.616 0 1.817-.007 2.452-.036 2.156-.1 3.357-1.309 3.457-3.489.027-.641.035-.846.035-2.475 0-1.63-.008-1.833-.035-2.474-.098-2.176-1.297-3.39-3.457-3.49C7.76.008 7.559 0 5.943 0zm0 2.919c-1.684 0-3.052 1.38-3.052 3.081 0 1.702 1.367 3.082 3.052 3.082 1.686 0 3.051-1.38 3.051-3.082S7.629 2.919 5.943 2.919zm0 5.081a1.99 1.99 0 0 1-1.98-2c0-1.104.886-2 1.98-2a1.992 1.992 0 0 1 1.983 1.998V6c0 1.105-.889 2-1.983 2zm3.172-5.922a.717.717 0 0 0-.713.72c0 .397.32.72.713.72a.715.715 0 0 0 .713-.719v-.001a.714.714 0 0 0-.711-.72h-.002z"/>
</svg>
