<?xml version="1.0" encoding="utf-8"?>
<!-- Generator: Adobe Illustrator 16.0.0, SVG Export Plug-In . SVG Version: 6.00 Build 0)  -->
<!DOCTYPE svg PUBLIC "-//W3C//DTD SVG 1.1//EN" "http://www.w3.org/Graphics/SVG/1.1/DTD/svg11.dtd">
<svg version="1.1" id="Layer_1" xmlns="http://www.w3.org/2000/svg" xmlns:xlink="http://www.w3.org/1999/xlink" x="0px" y="0px"
	 width="50px" height="30px" viewBox="0 0 50 30" enable-background="new 0 0 50 30" xml:space="preserve">
<g>
	<path fill="#FFFFFF" d="M21.884,26.714c-0.414-0.006-0.76-0.152-1.038-0.44L10.713,15.828c-0.279-0.286-0.417-0.639-0.412-1.049
		c0.006-0.411,0.153-0.76,0.443-1.038L21.188,3.607c0.286-0.278,0.637-0.416,1.052-0.41c0.419,0.006,0.768,0.152,1.042,0.436
		c0.274,0.284,0.41,0.636,0.404,1.056c-0.006,0.415-0.153,0.761-0.442,1.038l-7.901,7.658l22.909,0.345
		c0.404,0.006,0.75,0.156,1.031,0.446c0.284,0.292,0.422,0.642,0.416,1.047s-0.155,0.75-0.444,1.032
		c-0.29,0.281-0.644,0.422-1.048,0.416l-22.909-0.345l7.667,7.892c0.278,0.287,0.416,0.64,0.41,1.052
		c-0.006,0.419-0.152,0.769-0.436,1.043C22.658,26.585,22.305,26.72,21.884,26.714L21.884,26.714z"/>
</g>
</svg>
