<svg xmlns="http://www.w3.org/2000/svg" width="13" height="12" viewBox="0 0 13 12">
    <path fill="#FFF" fill-rule="nonzero" d="M13 7.357V12h-2.786V7.668c0-1.088-.403-1.83-1.412-1.83-.77 0-1.228.5-1.43.984-.073.173-.092.414-.092.656V12H4.493s.037-7.337 0-8.097H7.28v1.148l-.019.026h.019v-.026C7.65 4.5 8.31 3.713 9.79 3.713 11.625 3.713 13 4.87 13 7.357zM1.577 0C.624 0 0 .604 0 1.399c0 .777.606 1.4 1.54 1.4h.019c.972 0 1.576-.623 1.576-1.4C3.117.604 2.531 0 1.577 0zM.166 12h2.786V3.903H.166V12z"/>
</svg>
