<?xml version="1.0" encoding="utf-8"?>
<!-- Generator: Adobe Illustrator 16.0.0, SVG Export Plug-In . SVG Version: 6.00 Build 0)  -->
<!DOCTYPE svg PUBLIC "-//W3C//DTD SVG 1.1//EN" "http://www.w3.org/Graphics/SVG/1.1/DTD/svg11.dtd">
<svg version="1.1" id="Layer_1" xmlns="http://www.w3.org/2000/svg" xmlns:xlink="http://www.w3.org/1999/xlink" x="0px" y="0px"
	 width="50px" height="30px" viewBox="0 0 50 30" enable-background="new 0 0 50 30" xml:space="preserve">
<g>
	<path fill="#FFFFFF" d="M27.939,3.24c0.414,0,0.763,0.141,1.045,0.426l10.289,10.29C39.557,14.238,39.7,14.589,39.7,15
		s-0.142,0.762-0.427,1.044l-10.289,10.29c-0.282,0.282-0.631,0.426-1.045,0.426c-0.42,0-0.771-0.141-1.049-0.42
		c-0.279-0.279-0.42-0.63-0.42-1.05c0-0.414,0.141-0.763,0.426-1.044l7.785-7.775H11.77c-0.405,0-0.753-0.145-1.038-0.43
		C10.444,15.753,10.3,15.405,10.3,15s0.144-0.753,0.429-1.038s0.636-0.432,1.041-0.432h22.912l-7.785-7.776
		c-0.282-0.282-0.426-0.633-0.426-1.044c0-0.42,0.141-0.771,0.42-1.05C27.169,3.381,27.52,3.24,27.939,3.24L27.939,3.24z"/>
</g>
</svg>
